Coordinates
version=1
nRows=8
nColumns=63
inDegrees=yes

Units are S.I. units (second, meters, Newtons, ...)
If the header above contains a line with 'inDegrees', this indicates whether rotational values are in degrees (yes) or radians (no).

endheader
time	pelvis_tilt	pelvis_list	pelvis_rotation	pelvis_tx	pelvis_ty	pelvis_tz	hip_flexion_r	hip_adduction_r	hip_rotation_r	knee_angle_r	knee_angle_r_beta	ankle_angle_r	subtalar_angle_r	mtp_angle_r	hip_flexion_l	hip_adduction_l	hip_rotation_l	knee_angle_l	knee_angle_l_beta	ankle_angle_l	subtalar_angle_l	mtp_angle_l	L5_S1_Flex_Ext	L5_S1_Lat_Bending	L5_S1_axial_rotation	L4_L5_Flex_Ext	L4_L5_Lat_Bending	L4_L5_axial_rotation	L3_L4_Flex_Ext	L3_L4_Lat_Bending	L3_L4_axial_rotation	L2_L3_Flex_Ext	L2_L3_Lat_Bending	L2_L3_axial_rotation	L1_L2_Flex_Ext	L1_L2_Lat_Bending	L1_L2_axial_rotation	L1_T12_Flex_Ext	L1_T12_Lat_Bending	L1_T12_axial_rotation	Abs_r3	Abs_r2	Abs_r1	Abs_t1	Abs_t2	neck_flexion	neck_bending	neck_rotation	arm_flex_r	arm_add_r	arm_rot_r	elbow_flex_r	pro_sup_r	wrist_flex_r	wrist_dev_r	arm_flex_l	arm_add_l	arm_rot_l	elbow_flex_l	pro_sup_l	wrist_flex_l	wrist_dev_l
3.898305	1.647181	-12.607551	79.389571	0.268447	1.006837	0.361089	10.274614	5.377597	9.858998	4.387428	0.076575	23.199221	-9.159361	0.000000	10.995511	-5.377100	-3.116911	9.089901	0.158649	33.570716	-5.951390	0.000000	0.105032	0.903610	-0.424670	0.195055	1.201801	-0.451212	0.172557	2.197037	-0.451212	0.120041	2.197037	-0.371586	0.097533	1.842641	-0.345044	0.060015	1.399692	-0.318503	0.750234	10.221815	-2.361888	0.000000	0.000000	26.246986	-7.304535	-11.796168	14.747877	-15.177239	106.325822	0.804979	1.053878	-2.544454	-12.761935	14.554220	-3.786571	142.654867	0.701808	6.609442	-16.108908	-11.497200
3.915254	2.372389	-12.416261	80.301316	0.267188	1.005989	0.359665	9.686258	5.888027	9.891794	3.877699	0.067679	23.443035	-9.816925	0.000000	10.824272	-5.911806	-2.005855	9.332198	0.162878	33.997872	-6.450429	0.000000	0.117432	0.962268	-0.465965	0.218083	1.279816	-0.495088	0.192929	2.339657	-0.495088	0.134213	2.339657	-0.407719	0.109048	1.962256	-0.378597	0.067101	1.490553	-0.349474	0.838807	10.885364	-2.591558	0.000000	0.000000	26.997338	-8.750342	-12.025886	12.661378	-15.645349	107.974976	1.012861	1.225030	-4.504567	-11.147536	12.531646	-4.681952	139.526652	0.713607	6.720339	-14.849431	-9.526725
3.932203	3.054395	-12.119956	81.211557	0.265988	1.005457	0.358418	9.011209	6.349312	9.881625	3.341636	0.058323	23.712776	-10.435805	0.000000	10.527904	-6.406267	-1.176134	9.479811	0.165454	34.414141	-6.534957	0.000000	0.124602	1.010394	-0.530575	0.231399	1.343823	-0.563736	0.204709	2.456671	-0.563736	0.142408	2.456671	-0.464253	0.115706	2.060394	-0.431092	0.071198	1.565100	-0.397931	0.890022	11.429774	-2.950899	0.000000	0.000000	27.531866	-9.792254	-11.918036	10.819810	-15.955071	109.165985	1.254345	1.379952	-6.138025	-9.632179	10.775097	-5.664756	136.541514	0.698973	6.724560	-14.543831	-7.592928
3.949153	3.683855	-11.730945	82.131769	0.264798	1.005229	0.357335	8.268414	6.753988	9.756122	2.804943	0.048955	24.004850	-10.951535	0.000000	10.130870	-6.857205	-0.674037	9.551427	0.166704	34.833151	-6.137113	0.000000	0.125301	1.046619	-0.608436	0.232696	1.392003	-0.646464	0.205857	2.544749	-0.646464	0.143206	2.544749	-0.532382	0.116354	2.134265	-0.494355	0.071597	1.621213	-0.456327	0.895012	11.839562	-3.383941	0.000000	0.000000	27.849227	-10.469116	-11.559369	9.203687	-16.272602	109.557415	1.504492	1.580465	-6.104508	-8.179555	9.312104	-6.671713	133.693722	0.644369	6.622302	-14.889535	-5.771516
3.966102	4.256481	-11.248543	82.996856	0.263604	1.005387	0.356430	7.473942	7.102308	9.505716	2.315117	0.040406	24.302994	-11.276727	0.000000	9.616309	-7.266765	-0.567846	9.536676	0.166446	35.225441	-5.260755	0.000000	0.117984	1.075333	-0.655727	0.219107	1.430193	-0.696710	0.193835	2.614565	-0.696710	0.134843	2.614565	-0.573761	0.109560	2.192819	-0.532778	0.067416	1.665691	-0.491795	0.842745	12.164384	-3.646958	0.000000	0.000000	27.881450	-10.910921	-10.953049	7.683092	-16.648319	109.625158	1.756968	1.746318	-6.068595	-6.757841	8.771167	-7.823980	135.540680	-0.695926	2.881033	-14.934467	-4.798657
3.983051	4.738444	-10.719792	83.804567	0.262485	1.005737	0.355716	6.689574	7.370267	9.094078	1.908108	0.033303	24.645053	-11.356946	0.000000	9.055828	-7.606410	-0.735571	9.483852	0.165524	35.589739	-4.091904	0.000000	0.103576	1.091146	-0.696184	0.192352	1.451224	-0.739696	0.170166	2.653012	-0.739696	0.118378	2.653012	-0.609161	0.096181	2.225064	-0.565650	0.059184	1.690185	-0.522138	0.739836	12.343259	-3.871967	0.000000	0.000000	27.667302	-11.136471	-10.109170	6.276076	-17.053560	108.709411	2.145952	1.978834	-6.154414	-5.348622	8.247958	-8.884982	133.922277	-1.360130	0.965715	-14.864781	-4.033756
4.000000	5.114320	-10.174468	84.535663	0.261415	1.006231	0.355241	5.959190	7.550044	8.622189	1.611447	0.028125	24.992293	-11.333782	0.000000	8.495117	-7.864295	-1.147807	9.428458	0.164558	35.895407	-2.723875	0.000000	0.082397	1.094594	-0.736335	0.153019	1.455810	-0.782356	0.135370	2.661396	-0.782356	0.094171	2.661396	-0.644293	0.076514	2.232096	-0.598272	0.047082	1.695526	-0.552252	0.588553	12.382266	-4.095276	0.000000	0.000000	27.234750	-11.197152	-8.976044	5.061175	-17.468767	107.288050	2.569262	2.138444	-6.367354	-3.891823	7.703867	-9.878971	128.960384	-1.366233	0.292597	-14.511725	-3.673664
4.016949	5.385112	-9.637773	85.128049	0.260432	1.006827	0.355037	5.318708	7.648772	8.107893	1.451882	0.025340	25.341632	-11.158282	0.000000	7.949421	-8.039378	-1.692035	9.375618	0.163635	36.100373	-1.413250	0.000000	0.054532	1.087378	-0.770855	0.101271	1.446213	-0.819033	0.089590	2.643851	-0.819033	0.062324	2.643851	-0.674498	0.050638	2.217381	-0.626320	0.031160	1.684349	-0.578141	0.389516	12.300638	-4.287264	0.000000	0.000000	26.613448	-11.144419	-7.581601	3.988216	-17.890874	104.505673	3.178071	2.307177	-6.727750	-2.549930	7.118850	-10.797040	120.800450	-0.735422	0.899576	-13.920172	-3.714534
